<svg xmlns="http://www.w3.org/2000/svg" width="84.41" height="95.95" viewBox="0 0 85 96" fill="none">
    <defs>
        <linearGradient id="bg-grad-hand" x1="0%" y1="0%" x2="0%" y2="100%">
            <stop offset="0%" stop-color="#C5E86E" />
            <stop offset="100%" stop-color="#9ACD32" />
        </linearGradient>
        <filter id="shadow-hand" x="-20%" y="-20%" width="140%" height="140%">
            <feGaussianBlur in="SourceAlpha" stdDeviation="1.5"/>
            <feOffset dx="1" dy="2" result="offsetblur"/>
            <feComponentTransfer><feFuncA type="linear" slope="0.15"/></feComponentTransfer>
            <feMerge>
                <feMergeNode/>
                <feMergeNode in="SourceGraphic"/>
            </feMerge>
        </filter>
    </defs>
    <g transform="rotate(45 42 48)">
        <path d="M 36 10 H 48 C 50.2 10 52 11.8 52 14 V 65 H 32 V 14 C 32 11.8 33.8 10 36 10 Z" fill="url(#bg-grad-hand)"/>
        <rect x="47" y="15" width="4" height="25" rx="2" fill="#8BB92D"/>
        <polygon points="32,65 52,65 46,80 38,80" fill="#8BB92D"/>
        <polygon points="38,80 46,80 42,88" fill="#6A9020"/>
    </g>
    <g filter="url(#shadow-hand)">
        <path d="M 50 38 C 60 38 64 45 61 52 C 66 55 66 64 61 70 C 64 75 60 84 50 85 C 35 86 24 78 22 64 C 20 50 28 38 40 38 Z" fill="rgba(255, 255, 255, 0.85)" stroke="#FFFFFF" stroke-width="2.5" stroke-linejoin="round"/>
        <path d="M 40 38 C 45 46 44 58 34 66" fill="none" stroke="#FFFFFF" stroke-width="2.5" stroke-linecap="round"/>
    </g>
</svg>
